<svg xmlns="http://www.w3.org/2000/svg" version="1" width="850" height="850"><defs><filter id="a"><feGaussianBlur stdDeviation="2.25"/></filter><filter id="b"><feGaussianBlur stdDeviation="1.7625"/></filter></defs><path d="M30 30h90v90H30V30zm100 0h90v90h-90V30zm100 0h90v90h-90V30zm100 0h90v90h-90V30zm100 0h90v90h-90V30zm100 0h90v90h-90V30zm100 0h90v90h-90V30zm100 0h90v90h-90V30zM30 130h90v90H30v-90zm100 0h90v90h-90v-90zm100 0h90v90h-90v-90zm100 0h90v90h-90v-90zm100 0h90v90h-90v-90zm100 0h90v90h-90v-90zm100 0h90v90h-90v-90zm100 0h90v90h-90v-90zM30 230h90v90H30v-90zm100 0h90v90h-90v-90zm100 0h90v90h-90v-90zm100 0h90v90h-90v-90zm100 0h90v90h-90v-90zm100 0h90v90h-90v-90zm100 0h90v90h-90v-90zm100 0h90v90h-90v-90zM30 330h90v90H30v-90zm100 0h90v90h-90v-90zm100 0h90v90h-90v-90zm100 0h90v90h-90v-90zm100 0h90v90h-90v-90zm100 0h90v90h-90v-90zm100 0h90v90h-90v-90zm100 0h90v90h-90v-90zM30 430h90v90H30v-90zm100 0h90v90h-90v-90zm100 0h90v90h-90v-90zm100 0h90v90h-90v-90zm100 0h90v90h-90v-90zm100 0h90v90h-90v-90zm100 0h90v90h-90v-90zm100 0h90v90h-90v-90zM30 530h90v90H30v-90zm100 0h90v90h-90v-90zm100 0h90v90h-90v-90zm100 0h90v90h-90v-90zm100 0h90v90h-90v-90zm100 0h90v90h-90v-90zm100 0h90v90h-90v-90zm100 0h90v90h-90v-90zM30 630h90v90H30v-90zm100 0h90v90h-90v-90zm100 0h90v90h-90v-90zm100 0h90v90h-90v-90zm100 0h90v90h-90v-90zm100 0h90v90h-90v-90zm100 0h90v90h-90v-90zm100 0h90v90h-90v-90zM30 730h90v90H30v-90zm102 0h90v90h-90v-90zm98 0h90v90h-90v-90zm100 0h90v90h-90v-90zm100 0h90v90h-90v-90zm100 0h90v90h-90v-90zm100 0h90v90h-90v-90zm100 0h90v90h-90v-90z" fill-rule="evenodd" filter="url(#a)"/><path d="M25 25h90v90H25V25zm100 0h90v90h-90V25zm100 0h90v90h-90V25zm100 0h90v90h-90V25zm100 0h90v90h-90V25zm100 0h90v90h-90V25zm100 0h90v90h-90V25zm100 0h90v90h-90V25zM25 125h90v90H25v-90zm100 0h90v90h-90v-90zm100 0h90v90h-90v-90zm100 0h90v90h-90v-90zm100 0h90v90h-90v-90zm100 0h90v90h-90v-90zm100 0h90v90h-90v-90zm100 0h90v90h-90v-90zM25 225h90v90H25v-90zm100 0h90v90h-90v-90zm100 0h90v90h-90v-90zm100 0h90v90h-90v-90zm100 0h90v90h-90v-90zm100 0h90v90h-90v-90zm100 0h90v90h-90v-90zm100 0h90v90h-90v-90zM25 325h90v90H25v-90zm100 0h90v90h-90v-90zm100 0h90v90h-90v-90zm100 0h90v90h-90v-90zm100 0h90v90h-90v-90zm100 0h90v90h-90v-90zm100 0h90v90h-90v-90zm100 0h90v90h-90v-90zM25 425h90v90H25v-90zm100 0h90v90h-90v-90zm100 0h90v90h-90v-90zm100 0h90v90h-90v-90zm100 0h90v90h-90v-90zm100 0h90v90h-90v-90zm100 0h90v90h-90v-90zm100 0h90v90h-90v-90zM25 525h90v90H25v-90zm100 0h90v90h-90v-90zm100 0h90v90h-90v-90zm100 0h90v90h-90v-90zm100 0h90v90h-90v-90zm100 0h90v90h-90v-90zm100 0h90v90h-90v-90zm100 0h90v90h-90v-90zM25 625h90v90H25v-90zm100 0h90v90h-90v-90zm100 0h90v90h-90v-90zm100 0h90v90h-90v-90zm100 0h90v90h-90v-90zm100 0h90v90h-90v-90zm100 0h90v90h-90v-90zm100 0h90v90h-90v-90zM25 725h90v90H25v-90zm102 0h90v90h-90v-90zm98 0h90v90h-90v-90zm100 0h90v90h-90v-90zm100 0h90v90h-90v-90zm100 0h90v90h-90v-90zm100 0h90v90h-90v-90zm100 0h90v90h-90v-90z" fill="#80fe80" fill-rule="evenodd"/><path d="M140.5 66.5l8.2188 11.5H80.5v5h68.2188L140.5 94.5l40-14-40-14z" fill-opacity=".3922" fill-rule="evenodd" filter="url(#b)"/><path d="M178.7188 78.7188L99.1563 158.281l-2.3438-13.9062-18.375 38.1875 38.1875-18.375-13.9063-2.3438 79.5626-79.5625-3.5625-3.5624z" fill-opacity=".3922" fill-rule="evenodd" filter="url(#b)"/><path d="M282.5625 78.4375l-38.1875 18.375 13.9063 2.3438L83 274.4375V180.5h-5v100l4.2813 1.7813 179.5625-179.5625 2.3437 13.9062 18.375-38.1875z" fill-opacity=".3922" fill-rule="evenodd" filter="url(#b)"/><path d="M280.5 78v5h93.9375L78.7187 378.7188 78 380.5v100l4.2813 1.7813L481.5625 83h92.875L78.7187 578.7188 78 580.5v100l4.2813 1.7813L681.5625 83h92.875L78.7187 778.7188 80.5 783h100l1.7813-.7188L778 186.5625v92.875L278.7187 778.7188 280.5 783h100l1.7813-.7188L778 386.5625v92.875L478.7187 778.7188 480.5 783h100l1.7813-.7188 179.5625-179.5625 2.3437 13.9063 18.375-38.1875-38.1875 18.375 13.9063 2.3438L579.4375 778h-92.875l295.7188-295.7188L783 480.5v-100l-4.2813-1.7813L379.4375 778h-92.875l495.7188-495.7188L783 280.5v-100l-4.2813-1.7813L179.4375 778h-92.875L782.2813 82.2812 780.5 78h-100l-1.7813.7188L83 674.4375v-92.875L582.2813 82.2812 580.5 78h-100l-1.7813.7188L83 474.4375v-92.875L382.2813 82.2812 380.5 78h-100z" fill-opacity=".3922" fill-rule="evenodd" filter="url(#b)"/><path d="M778 580.5v98.9375l-78.8438 78.8438-2.3437-13.9063-18.375 38.1875 38.1875-18.375-13.9063-2.3438 79.5625-79.5625L783 680.5v-100h-5z" fill-opacity=".3922" fill-rule="evenodd" filter="url(#b)"/><path d="M740.5 766.5l8.2188 11.5H680.5v5h68.2188L740.5 794.5l40-14-40-14z" fill-opacity=".3922" fill-rule="evenodd" filter="url(#b)"/><path d="M130.5 56.5l8.2188 11.5H70.5v5h68.2188L130.5 84.5l40-14-40-14z" fill="#00f" fill-rule="evenodd" stroke="#fff" stroke-width=".5" stroke-linejoin="bevel"/><path d="M168.7188 68.7188L89.1563 148.281l-2.3438-13.9062-18.375 38.1875 38.1875-18.375-13.9063-2.3438 79.5626-79.5625-3.5625-3.5624z" fill="#00f" fill-rule="evenodd" stroke="#fff" stroke-width=".5" stroke-linejoin="bevel"/><path d="M272.5625 68.4375l-38.1875 18.375 13.9063 2.3438L73 264.4375V170.5h-5v100l4.2813 1.7813L251.8438 92.7188l2.3437 13.9062 18.375-38.1875z" fill="#00f" fill-rule="evenodd" stroke="#fff" stroke-width=".5" stroke-linejoin="bevel"/><path d="M270.5 68v5h93.9375L68.7187 368.7188 68 370.5v100l4.2813 1.7813L471.5625 73h92.875L68.7187 568.7188 68 570.5v100l4.2813 1.7813L671.5625 73h92.875L68.7187 768.7188 70.5 773h100l1.7813-.7188L768 176.5625v92.875L268.7187 768.7188 270.5 773h100l1.7813-.7188L768 376.5625v92.875L468.7187 768.7188 470.5 773h100l1.7813-.7188 179.5625-179.5625 2.3437 13.9063 18.375-38.1875-38.1875 18.375 13.9063 2.3438L569.4375 768h-92.875l295.7188-295.7188L773 470.5v-100l-4.2813-1.7813L369.4375 768h-92.875l495.7188-495.7188L773 270.5v-100l-4.2813-1.7813L169.4375 768h-92.875L772.2813 72.2812 770.5 68h-100l-1.7813.7188L73 664.4375v-92.875L572.2813 72.2812 570.5 68h-100l-1.7813.7188L73 464.4375v-92.875L372.2813 72.2812 370.5 68h-100z" fill="#00f" fill-rule="evenodd" stroke="#fff" stroke-width=".5" stroke-linejoin="bevel"/><path d="M768 570.5v98.9375l-78.8438 78.8438-2.3437-13.9063-18.375 38.1875 38.1875-18.375-13.9063-2.3438 79.5625-79.5625L773 670.5v-100h-5z" fill="#00f" fill-rule="evenodd" stroke="#fff" stroke-width=".5" stroke-linejoin="bevel"/><path d="M730.5 756.5l8.2188 11.5H670.5v5h68.2188L730.5 784.5l40-14-40-14z" fill="#00f" fill-rule="evenodd" stroke="#fff" stroke-width=".5" stroke-linejoin="bevel"/></svg>